# xmcd
#
# Track frame offsets:
#	150
#	17411
#	40150
#	54477
#	78184
#	109119
#	131551
#	162079
#	174786
#	197721
#	217265
#	238324
#
# Disc length: 3471 seconds
#
# Revision: 0
# Processed by: cddbd v1.5.1PL2 Copyright (c) Steve Scherf et al.
# Submitted via: dBpowerAMP V4.0
#
DISCID=990d8d0c
DTITLE=JP Stingray - Mister Blues Strikes Again
DYEAR=2003
DGENRE=Blues
TTITLE0=Before You Accuse Me
TTITLE1=Mister Blues Strikes Again
TTITLE2=After Hours
TTITLE3=Square One
TTITLE4=The Day You Brought Me The Blues
TTITLE5=Jailhouse Blues
TTITLE6=Love Is No Game
TTITLE7=The One Under The Sun
TTITLE8=Trouble No More
TTITLE9=Bluesbrothers For Life
TTITLE10=The Day You Left
TTITLE11=Voodoo Chile
EXTD=
EXTT0=
EXTT1=
EXTT2=
EXTT3=
EXTT4=
EXTT5=
EXTT6=
EXTT7=
EXTT8=
EXTT9=
EXTT10=
EXTT11=
PLAYORDER=
